<?xml version="1.0" standalone="no"?>
<!DOCTYPE svg PUBLIC "-//W3C//DTD SVG 20010904//EN"
 "http://www.w3.org/TR/2001/REC-SVG-20010904/DTD/svg10.dtd">
<svg version="1.0" xmlns="http://www.w3.org/2000/svg"
 width="453.000000pt" height="453.000000pt" viewBox="0 0 453.000000 453.000000"
 preserveAspectRatio="xMidYMid meet">
<metadata>
Created by potrace 1.11, written by Peter Selinger 2001-2013
</metadata>
<g transform="translate(0.000000,453.000000) scale(0.100000,-0.100000)"
fill="#000000" stroke="none">
<path d="M1893 4379 c-81 -40 -123 -112 -123 -206 1 -134 98 -233 230 -233
141 0 238 108 228 253 -5 77 -36 132 -100 174 -58 39 -172 45 -235 12z"/>
<path d="M1445 4271 c-171 -79 -166 -333 7 -405 21 -9 54 -16 75 -16 l38 0
-35 -21 c-86 -51 -157 -141 -190 -240 -18 -53 -21 -81 -18 -159 3 -81 8 -105
35 -163 42 -89 121 -168 210 -210 58 -27 82 -32 164 -35 119 -5 182 11 269 70
72 48 140 133 167 211 27 79 25 233 -6 310 -43 109 -140 205 -248 248 -45 18
-79 23 -154 23 l-95 1 24 19 c35 28 72 113 72 166 0 59 -39 140 -81 172 -68
51 -162 62 -234 29z"/>
<path d="M2460 4229 c-127 -50 -213 -138 -260 -266 -19 -53 -22 -77 -18 -166
3 -92 7 -110 36 -169 132 -269 492 -330 703 -119 211 212 150 571 -120 704
-60 29 -74 32 -176 35 -93 2 -119 -1 -165 -19z"/>
<path d="M859 4147 c-104 -30 -199 -112 -247 -215 -24 -50 -27 -70 -27 -157 0
-93 2 -105 33 -167 116 -236 429 -287 615 -101 26 26 60 72 75 103 24 50 27
66 27 165 0 98 -3 116 -27 167 -58 124 -184 207 -326 214 -45 2 -96 -1 -123
-9z"/>
<path d="M3245 4018 c-73 -26 -121 -84 -131 -159 -25 -181 185 -297 322 -177
49 43 64 78 64 148 0 70 -15 105 -64 148 -54 47 -127 63 -191 40z"/>
<path d="M3713 3724 c-23 -9 -62 -33 -88 -56 -130 -115 -141 -314 -24 -443 66
-71 130 -99 229 -99 124 0 219 58 278 169 23 43 27 62 27 140 0 78 -4 97 -27
141 -34 64 -105 128 -165 148 -58 20 -174 19 -230 0z"/>
<path d="M3175 3571 c-128 -35 -205 -131 -205 -255 0 -81 17 -129 63 -182 53
-60 106 -86 190 -92 60 -4 73 -2 131 27 101 50 146 123 146 238 0 112 -61 210
-156 249 -42 18 -131 25 -169 15z"/>
<path d="M400 3510 c-112 -24 -217 -109 -268 -218 -24 -50 -27 -69 -27 -157 0
-88 3 -107 27 -157 138 -295 552 -302 694 -12 24 49 30 74 33 147 4 108 -10
161 -61 237 -82 124 -249 191 -398 160z"/>
<path d="M1061 3347 c-118 -45 -183 -177 -147 -299 62 -214 355 -241 452 -42
22 46 26 64 22 123 -7 133 -96 223 -227 228 -36 1 -81 -3 -100 -10z"/>
<path d="M2380 3294 c-172 -45 -332 -176 -408 -334 -52 -110 -66 -181 -60
-322 4 -89 11 -127 31 -180 71 -185 217 -324 401 -384 68 -23 99 -27 196 -27
97 0 128 4 195 26 208 68 365 234 419 444 19 71 21 227 5 305 -6 29 -29 91
-51 138 -76 160 -237 290 -413 335 -75 19 -241 19 -315 -1z"/>
<path d="M4162 3259 c-76 -38 -116 -128 -98 -224 9 -47 76 -120 123 -136 54
-17 135 -7 181 24 94 61 110 213 33 301 -50 57 -161 73 -239 35z"/>
<path d="M3570 3089 c-127 -50 -213 -138 -260 -266 -19 -53 -22 -77 -18 -166
3 -92 7 -110 36 -169 132 -269 492 -330 703 -119 211 212 150 571 -120 704
-60 29 -74 32 -176 35 -93 2 -119 -1 -165 -19z"/>
<path d="M1455 2966 c-97 -46 -145 -125 -145 -241 0 -112 48 -192 142 -239 62
-31 149 -35 221 -10 62 21 130 89 151 151 49 143 -9 285 -139 344 -60 28 -166
25 -230 -5z"/>
<path d="M853 2823 c-69 -24 -134 -71 -171 -125 -31 -45 -61 -131 -63 -177 0
-21 -3 -19 -15 16 -9 23 -33 62 -56 88 -115 130 -314 141 -443 24 -71 -66 -99
-130 -99 -229 0 -124 58 -219 169 -278 43 -23 62 -27 140 -27 81 0 95 3 144
30 101 56 160 150 162 259 1 45 2 47 8 20 23 -95 99 -186 189 -227 37 -17 66
-22 137 -22 78 0 97 4 146 28 66 32 132 99 162 165 31 67 31 207 0 274 -30 66
-96 133 -160 164 -73 34 -177 41 -250 17z"/>
<path d="M4249 2817 c-106 -70 -97 -232 15 -286 54 -27 98 -27 152 0 82 39
114 137 72 219 -32 63 -77 90 -148 90 -43 0 -66 -6 -91 -23z"/>
<path d="M4185 2441 c-93 -42 -140 -125 -133 -234 5 -77 36 -132 100 -174 37
-25 50 -28 128 -28 78 0 91 3 128 28 119 78 139 255 39 357 -66 68 -177 90
-262 51z"/>
<path d="M1448 2381 c-375 -120 -413 -634 -60 -808 75 -37 78 -38 192 -38 114
0 117 1 192 38 131 64 215 178 239 325 27 165 -51 342 -192 432 -106 68 -253
88 -371 51z"/>
<path d="M3165 2372 c-106 -50 -147 -187 -85 -288 62 -100 230 -115 312 -28
36 39 48 74 48 141 0 68 -32 131 -85 163 -50 31 -138 36 -190 12z"/>
<path d="M3618 2191 c-75 -24 -118 -52 -172 -112 -110 -122 -125 -321 -35
-461 131 -203 423 -234 594 -63 207 206 111 566 -170 640 -77 20 -146 18 -217
-4z"/>
<path d="M548 2151 c-79 -26 -134 -60 -194 -121 -89 -90 -134 -200 -134 -330
0 -135 48 -247 148 -342 93 -89 191 -128 321 -128 274 1 471 197 471 470 0
197 -92 343 -269 428 -68 33 -82 36 -180 39 -84 2 -118 -1 -163 -16z"/>
<path d="M2808 2076 c-55 -20 -85 -42 -117 -87 -76 -105 -60 -247 39 -332 111
-95 287 -68 364 57 44 71 49 165 12 240 -54 110 -183 163 -298 122z"/>
<path d="M2205 2006 c-97 -46 -145 -125 -145 -241 0 -112 48 -192 142 -239 62
-31 149 -35 221 -10 62 21 130 89 151 151 49 143 -9 285 -139 344 -60 28 -166
25 -230 -5z"/>
<path d="M4266 1945 c-80 -28 -126 -96 -126 -185 0 -65 18 -108 63 -147 128
-112 327 -22 327 147 0 140 -132 232 -264 185z"/>
<path d="M3115 1654 c-87 -32 -144 -118 -145 -217 0 -138 92 -231 230 -231
137 0 230 94 230 231 0 74 -25 129 -79 174 -67 58 -153 73 -236 43z"/>
<path d="M2618 1586 c-57 -21 -85 -42 -115 -87 -60 -92 -33 -232 58 -295 56
-39 156 -46 216 -16 112 58 152 180 96 293 -48 92 -162 140 -255 105z"/>
<path d="M1215 1561 c-72 -33 -105 -86 -105 -166 0 -55 14 -92 48 -129 100
-106 287 -52 317 92 10 50 -12 125 -48 162 -59 61 -137 76 -212 41z"/>
<path d="M4045 1526 c-60 -26 -115 -113 -115 -181 0 -105 92 -195 200 -195
169 0 259 199 147 327 -17 20 -46 42 -64 49 -41 18 -129 17 -168 0z"/>
<path d="M1849 1500 c-225 -36 -413 -194 -497 -418 -33 -90 -42 -255 -18 -357
28 -118 80 -209 171 -300 91 -91 182 -143 300 -171 102 -24 267 -15 357 18
327 122 496 458 396 788 -61 203 -234 371 -438 425 -71 19 -200 26 -271 15z"/>
<path d="M3529 1337 c-228 -118 -216 -455 19 -559 71 -31 181 -30 252 3 78 36
114 71 149 141 27 53 31 72 31 142 0 96 -25 161 -85 221 -61 60 -125 85 -222
85 -72 0 -88 -4 -144 -33z"/>
<path d="M955 1261 c-128 -35 -205 -131 -205 -255 0 -81 17 -129 63 -182 53
-60 106 -86 190 -92 60 -4 73 -2 131 27 99 49 146 123 146 232 0 34 -5 79 -12
101 -15 51 -77 121 -131 147 -48 23 -138 34 -182 22z"/>
<path d="M2870 1171 c-259 -84 -343 -405 -157 -595 75 -76 131 -100 242 -104
73 -3 101 0 147 18 76 28 155 101 193 177 26 52 29 68 30 153 0 82 -4 103 -27
152 -35 76 -98 142 -166 175 -46 23 -71 28 -146 30 -50 1 -102 -1 -116 -6z"/>
<path d="M2518 153 c7 -3 16 -2 19 1 4 3 -2 6 -13 5 -11 0 -14 -3 -6 -6z"/>
</g>
</svg>
